<?xml version="1.0" encoding="UTF-8" standalone="no"?>
<!-- Created with Inkscape (http://www.inkscape.org/) -->

<svg
   width="139.21463mm"
   height="30.849636mm"
   viewBox="0 0 139.21463 30.849636"
   version="1.1"
   id="svg4066"
   inkscape:version="1.2.2 (b0a84865, 2022-12-01)"
   xmlns:inkscape="http://www.inkscape.org/namespaces/inkscape"
   xmlns:sodipodi="http://sodipodi.sourceforge.net/DTD/sodipodi-0.dtd"
   xmlns="http://www.w3.org/2000/svg"
   xmlns:svg="http://www.w3.org/2000/svg">
  <sodipodi:namedview
     id="namedview4068"
     pagecolor="#ffffff"
     bordercolor="#000000"
     borderopacity="0.25"
     inkscape:showpageshadow="2"
     inkscape:pageopacity="0.0"
     inkscape:pagecheckerboard="0"
     inkscape:deskcolor="#d1d1d1"
     inkscape:document-units="mm"
     showgrid="false"
     inkscape:zoom="0.2102413"
     inkscape:cx="275.87348"
     inkscape:cy="66.590151"
     inkscape:window-width="1654"
     inkscape:window-height="544"
     inkscape:window-x="0"
     inkscape:window-y="25"
     inkscape:window-maximized="0"
     inkscape:current-layer="layer1" />
  <defs
     id="defs4063" />
  <g
     inkscape:label="Layer 1"
     inkscape:groupmode="layer"
     id="layer1"
     transform="translate(71.495026,-133.07518)">
    <g
       id="g171"
       transform="matrix(0.7062934,0,0,0.7062934,-343.14822,117.59599)">
      <path
         d="m 1809.2693,82.567066 c -7.5684,0 -10.9377,-2.363317 -15.5894,-5.656875 -5.3306,-3.746109 -11.9435,-8.422459 -24.3145,-8.422459 -12.3709,0 -18.9839,4.67635 -24.2893,8.422459 -4.6517,3.293558 -8.021,5.656875 -15.5894,5.656875 -7.5684,0 -10.9377,-2.363317 -15.5894,-5.656875 -5.3306,-3.746109 -11.9435,-8.422459 -24.3145,-8.422459 -12.3709,0 -18.9839,4.67635 -24.2893,8.422459 -4.6517,3.293558 -8.021,5.656875 -15.5894,5.656875 -7.5684,0 -10.9378,-2.363317 -15.5894,-5.656875 -5.3558,-3.746109 -11.9687,-8.422459 -24.3145,-8.422459 -12.371,0 -18.9839,4.67635 -24.2893,8.422459 -4.6517,3.293558 -8.021,5.656875 -15.5895,5.656875 -7.5684,0 -10.9377,-2.363317 -15.5894,-5.656875 -5.3557,-3.746109 -11.9686,-8.422459 -24.3396,-8.422459 -12.3709,0 -18.9838,4.67635 -24.2893,8.422459 -4.6517,3.293558 -8.021,5.656875 -15.5894,5.656875 -7.5684,0 -10.9377,-2.363317 -15.5894,-5.656875 -5.3306,-3.746109 -11.9436,-8.422459 -24.3145,-8.422459 -12.371,0 -18.9839,4.67635 -24.2893,8.422459 -4.6517,3.293558 -8.021,5.656875 -15.5894,5.656875 -7.5685,0 -10.9378,-2.363317 -15.5895,-5.656875 -5.3305,-3.746109 -11.9686,-8.422459 -24.3144,-8.422459 -12.3458,0 -18.9839,4.67635 -24.3145,8.422459 -4.6517,3.293558 -8.021,5.656875 -15.5894,5.656875 -7.5684,0 -10.9378,-2.363317 -15.5894,-5.656875 -5.3306,-3.746109 -11.9435,-8.422459 -24.3145,-8.422459 -12.371,0 -18.9839,4.67635 -24.2893,8.422459 -4.6517,3.293558 -8.021,5.656875 -15.5895,5.656875 -7.5684,0 -10.9377,-2.363317 -15.5894,-5.656875 -5.3305,-3.746109 -11.9435,-8.422459 -24.3144,-8.422459 -4.174,0 -7.5433,3.368984 -7.5433,7.5425 0,4.173517 3.3693,7.542501 7.5433,7.542501 7.5684,0 10.9377,2.363317 15.5894,5.656875 5.3054,3.746109 11.9183,8.422459 24.2893,8.422459 12.371,0 18.9839,-4.67635 24.2893,-8.422459 4.6517,-3.293558 8.021,-5.656875 15.5895,-5.656875 7.5684,0 10.9377,2.363317 15.5894,5.656875 5.3557,3.746109 11.9686,8.422459 24.3396,8.422459 12.3709,0 18.9839,-4.67635 24.2893,-8.422459 4.6517,-3.293558 8.021,-5.656875 15.5894,-5.656875 7.5684,0 10.9378,2.363317 15.5894,5.656875 5.3055,3.746109 11.9184,8.422459 24.2894,8.422459 12.3709,0 18.9839,-4.67635 24.2893,-8.422459 4.702,-3.293558 8.0461,-5.656875 15.6397,-5.656875 7.5684,0 10.9377,2.363317 15.5894,5.656875 5.3054,3.746109 11.9184,8.422459 24.2893,8.422459 12.371,0 18.9839,-4.67635 24.2894,-8.422459 4.6516,-3.293558 8.021,-5.656875 15.5894,-5.656875 7.5684,0 10.9377,2.363317 15.5894,5.656875 5.3054,3.746109 11.9184,8.422459 24.2893,8.422459 12.3709,0 18.9839,-4.67635 24.2893,-8.422459 4.6517,-3.293558 8.021,-5.656875 15.5894,-5.656875 7.5684,0 10.9378,2.363317 15.5894,5.656875 5.3055,3.746109 11.9184,8.422459 24.2894,8.422459 12.3709,0 18.9839,-4.67635 24.2893,-8.422459 4.6517,-3.293558 8.021,-5.656875 15.5894,-5.656875 7.5684,0 10.9377,2.363317 15.5894,5.656875 5.3054,3.746109 11.9184,8.422459 24.2894,8.422459 12.3709,0 18.9839,-4.67635 24.2893,-8.422459 4.6517,-3.293558 8.021,-5.656875 15.5894,-5.656875 7.5685,0 10.9378,2.363317 15.5894,5.656875 5.3055,3.746109 11.9184,8.422459 24.2894,8.422459 4.1739,0 7.5432,-3.368984 7.5432,-7.542501 0,-4.173516 -3.2184,-7.5425 -7.3923,-7.5425 z"
         style="fill:#f22f54;fill-opacity:1;fill-rule:nonzero;stroke:none;stroke-width:0.251429"
         id="path1171"
         transform="matrix(0.31999998,0,0,0.31999998,0,1.3730666e-5)" />
      <path
         d="m 1810.4952,135.27868 c -7.5684,0 -10.9377,-2.36331 -15.5894,-5.65687 -5.3306,-3.74611 -11.9435,-8.42246 -24.3145,-8.42246 -12.3709,0 -18.9839,4.67635 -24.2893,8.42246 -4.6517,3.29356 -8.021,5.65687 -15.5894,5.65687 -7.5684,0 -10.9377,-2.36331 -15.5894,-5.65687 -5.3306,-3.74611 -11.9435,-8.42246 -24.3145,-8.42246 -12.3709,0 -18.9839,4.67635 -24.2893,8.42246 -4.6517,3.29356 -8.021,5.65687 -15.5894,5.65687 -7.5684,0 -10.9378,-2.36331 -15.5894,-5.65687 -5.3558,-3.74611 -11.9687,-8.42246 -24.3145,-8.42246 -12.371,0 -18.9839,4.67635 -24.2893,8.42246 -4.6517,3.29356 -8.021,5.65687 -15.5895,5.65687 -7.5684,0 -10.9377,-2.36331 -15.5894,-5.65687 -5.3557,-3.74611 -11.9686,-8.42246 -24.3396,-8.42246 -12.3709,0 -18.9838,4.67635 -24.2893,8.42246 -4.6517,3.29356 -8.021,5.65687 -15.5894,5.65687 -7.5684,0 -10.9377,-2.36331 -15.5894,-5.65687 -5.3306,-3.74611 -11.9436,-8.42246 -24.3145,-8.42246 -12.371,0 -18.9839,4.67635 -24.2893,8.42246 -4.6517,3.29356 -8.021,5.65687 -15.5894,5.65687 -7.5685,0 -10.9378,-2.36331 -15.5895,-5.65687 -5.3305,-3.74611 -11.9686,-8.42246 -24.3144,-8.42246 -12.3458,0 -18.9839,4.67635 -24.3145,8.42246 -4.6517,3.29356 -8.021,5.65687 -15.5894,5.65687 -7.5684,0 -10.9378,-2.36331 -15.5894,-5.65687 -5.3306,-3.74611 -11.9435,-8.42246 -24.3145,-8.42246 -12.371,0 -18.9839,4.67635 -24.2893,8.42246 -4.6517,3.29356 -8.021,5.65687 -15.5895,5.65687 -7.5684,0 -10.9377,-2.36331 -15.5894,-5.65687 -5.3305,-3.74611 -11.9435,-8.42246 -24.3144,-8.42246 -4.174,0 -7.5433,3.36898 -7.5433,7.5425 0,4.17352 3.3693,7.5425 7.5433,7.5425 7.5684,0 10.9377,2.36332 15.5894,5.65688 5.3054,3.74611 11.9183,8.42245 24.2893,8.42245 12.371,0 18.9839,-4.67634 24.2893,-8.42245 4.6517,-3.29356 8.021,-5.65688 15.5895,-5.65688 7.5684,0 10.9377,2.36332 15.5894,5.65688 5.3557,3.74611 11.9686,8.42245 24.3396,8.42245 12.3709,0 18.9839,-4.67634 24.2893,-8.42245 4.6517,-3.29356 8.021,-5.65688 15.5894,-5.65688 7.5684,0 10.9378,2.36332 15.5894,5.65688 5.3055,3.74611 11.9184,8.42245 24.2894,8.42245 12.3709,0 18.9839,-4.67634 24.2893,-8.42245 4.702,-3.29356 8.0461,-5.65688 15.6397,-5.65688 7.5684,0 10.9377,2.36332 15.5894,5.65688 5.3054,3.74611 11.9184,8.42245 24.2893,8.42245 12.371,0 18.9839,-4.67634 24.2894,-8.42245 4.6516,-3.29356 8.021,-5.65688 15.5894,-5.65688 7.5684,0 10.9377,2.36332 15.5894,5.65688 5.3054,3.74611 11.9184,8.42245 24.2893,8.42245 12.3709,0 18.9839,-4.67634 24.2893,-8.42245 4.6517,-3.29356 8.021,-5.65688 15.5894,-5.65688 7.5684,0 10.9378,2.36332 15.5894,5.65688 5.3055,3.74611 11.9184,8.42245 24.2894,8.42245 12.3709,0 18.9839,-4.67634 24.2893,-8.42245 4.6517,-3.29356 8.021,-5.65688 15.5894,-5.65688 7.5684,0 10.9377,2.36332 15.5894,5.65688 5.3054,3.74611 11.9184,8.42245 24.2894,8.42245 12.3709,0 18.9839,-4.67634 24.2893,-8.42245 4.6517,-3.29356 8.021,-5.65688 15.5894,-5.65688 7.5685,0 10.9378,2.36332 15.5894,5.65688 5.3055,3.74611 11.9184,8.42245 24.2894,8.42245 4.1739,0 7.5432,-3.36898 7.5432,-7.5425 0,-4.17351 -3.2184,-7.5425 -7.3923,-7.5425 z"
         style="fill:#f22f54;fill-opacity:1;fill-rule:nonzero;stroke:none;stroke-width:0.251429"
         id="path1175"
         transform="matrix(0.31999998,0,0,0.31999998,0,1.3730666e-5)" />
      <path
         d="m 1807.9073,189.89717 c -7.5684,0 -10.9377,-2.36331 -15.5894,-5.65687 -5.3306,-3.74611 -11.9435,-8.42246 -24.3145,-8.42246 -12.3709,0 -18.9839,4.67635 -24.2893,8.42246 -4.6517,3.29356 -8.021,5.65687 -15.5894,5.65687 -7.5684,0 -10.9377,-2.36331 -15.5894,-5.65687 -5.3306,-3.74611 -11.9435,-8.42246 -24.3145,-8.42246 -12.3709,0 -18.9839,4.67635 -24.2893,8.42246 -4.6517,3.29356 -8.021,5.65687 -15.5894,5.65687 -7.5684,0 -10.9378,-2.36331 -15.5894,-5.65687 -5.3558,-3.74611 -11.9687,-8.42246 -24.3145,-8.42246 -12.371,0 -18.9839,4.67635 -24.2893,8.42246 -4.6517,3.29356 -8.021,5.65687 -15.5895,5.65687 -7.5684,0 -10.9377,-2.36331 -15.5894,-5.65687 -5.3557,-3.74611 -11.9686,-8.42246 -24.3396,-8.42246 -12.3709,0 -18.9838,4.67635 -24.2893,8.42246 -4.6517,3.29356 -8.021,5.65687 -15.5894,5.65687 -7.5684,0 -10.9377,-2.36331 -15.5894,-5.65687 -5.3306,-3.74611 -11.9436,-8.42246 -24.3145,-8.42246 -12.371,0 -18.9839,4.67635 -24.2893,8.42246 -4.6517,3.29356 -8.021,5.65687 -15.5894,5.65687 -7.5685,0 -10.9378,-2.36331 -15.5895,-5.65687 -5.3305,-3.74611 -11.9686,-8.42246 -24.3144,-8.42246 -12.3458,0 -18.9839,4.67635 -24.3145,8.42246 -4.6517,3.29356 -8.021,5.65687 -15.5894,5.65687 -7.5684,0 -10.9378,-2.36331 -15.5894,-5.65687 -5.3306,-3.74611 -11.9435,-8.42246 -24.3145,-8.42246 -12.371,0 -18.9839,4.67635 -24.2893,8.42246 -4.6517,3.29356 -8.021,5.65687 -15.5895,5.65687 -7.5684,0 -10.9377,-2.36331 -15.5894,-5.65687 -5.3305,-3.74611 -11.9435,-8.42246 -24.3144,-8.42246 -4.174,0 -7.5433,3.36898 -7.5433,7.5425 0,4.17352 3.3693,7.5425 7.5433,7.5425 7.5684,0 10.9377,2.36332 15.5894,5.65688 5.3054,3.74611 11.9183,8.42245 24.2893,8.42245 12.371,0 18.9839,-4.67634 24.2893,-8.42245 4.6517,-3.29356 8.021,-5.65688 15.5895,-5.65688 7.5684,0 10.9377,2.36332 15.5894,5.65688 5.3557,3.74611 11.9686,8.42245 24.3396,8.42245 12.3709,0 18.9839,-4.67634 24.2893,-8.42245 4.6517,-3.29356 8.021,-5.65688 15.5894,-5.65688 7.5684,0 10.9378,2.36332 15.5894,5.65688 5.3055,3.74611 11.9184,8.42245 24.2894,8.42245 12.3709,0 18.9839,-4.67634 24.2893,-8.42245 4.702,-3.29356 8.0461,-5.65688 15.6397,-5.65688 7.5684,0 10.9377,2.36332 15.5894,5.65688 5.3054,3.74611 11.9184,8.42245 24.2893,8.42245 12.371,0 18.9839,-4.67634 24.2894,-8.42245 4.6516,-3.29356 8.021,-5.65688 15.5894,-5.65688 7.5684,0 10.9377,2.36332 15.5894,5.65688 5.3054,3.74611 11.9184,8.42245 24.2893,8.42245 12.3709,0 18.9839,-4.67634 24.2893,-8.42245 4.6517,-3.29356 8.021,-5.65688 15.5894,-5.65688 7.5684,0 10.9378,2.36332 15.5894,5.65688 5.3055,3.74611 11.9184,8.42245 24.2894,8.42245 12.3709,0 18.9839,-4.67634 24.2893,-8.42245 4.6517,-3.29356 8.021,-5.65688 15.5894,-5.65688 7.5684,0 10.9377,2.36332 15.5894,5.65688 5.3054,3.74611 11.9184,8.42245 24.2894,8.42245 12.3709,0 18.9839,-4.67634 24.2893,-8.42245 4.6517,-3.29356 8.021,-5.65688 15.5894,-5.65688 7.5685,0 10.9378,2.36332 15.5894,5.65688 5.3055,3.74611 11.9184,8.42245 24.2894,8.42245 4.1739,0 7.5432,-3.36898 7.5432,-7.5425 0,-4.17351 -3.2184,-7.5425 -7.3923,-7.5425 z"
         style="fill:#f22f54;fill-opacity:1;fill-rule:nonzero;stroke:none;stroke-width:0.251429"
         id="path1179"
         transform="matrix(0.31999998,0,0,0.31999998,0,1.3730666e-5)" />
    </g>
  </g>
</svg>
